<!-- Generated by IcoMoon.io -->
<svg version="1.1" xmlns="http://www.w3.org/2000/svg" width="32" height="32" viewBox="0 0 32 32">
<title>Account-Balance</title>
<path d="M5.333 15.333v5.333c0 1.107 0.893 2 2 2s2-0.893 2-2v-5.333c0-1.107-0.893-2-2-2s-2 0.893-2 2zM13.333 15.333v5.333c0 1.107 0.893 2 2 2s2-0.893 2-2v-5.333c0-1.107-0.893-2-2-2s-2 0.893-2 2zM4.667 29.333h21.333c1.107 0 2-0.893 2-2s-0.893-2-2-2h-21.333c-1.107 0-2 0.893-2 2s0.893 2 2 2zM21.333 15.333v5.333c0 1.107 0.893 2 2 2s2-0.893 2-2v-5.333c0-1.107-0.893-2-2-2s-2 0.893-2 2zM14.093 1.987l-10.533 5.547c-0.547 0.28-0.893 0.853-0.893 1.467 0 0.92 0.747 1.667 1.667 1.667h22.013c0.907 0 1.653-0.747 1.653-1.667 0-0.613-0.347-1.187-0.893-1.467l-10.533-5.547c-0.773-0.413-1.707-0.413-2.48 0z" style="fill: #fff;"></path>
</svg>
