<!-- Generated by IcoMoon.io -->
<svg version="1.1" xmlns="http://www.w3.org/2000/svg" width="32" height="32" viewBox="0 0 32 32">
<title>Card-Payment-Original</title>
<path style="fill: #fff;" d="M30.667 8v1.333h-20v-1.333c0-1.467 1.2-2.667 2.667-2.667h14.667c1.467 0 2.667 1.2 2.667 2.667zM18 17.333c-0.4 0-0.8 0.133-1.2 0.4l-4.667 3.2-0.667 0.4h-0.8c-1.467 0-2.667-1.2-2.667-2.667v-5.333c0-0.8-0.533-1.333-1.333-1.333-0.4 0-0.667 0.133-0.933 0.4l-4.4 3.6v9.333c0 1.467 1.2 2.667 2.667 2.667h9.333l6.133-7.333c0.267-0.4 0.533-0.8 0.533-1.333 0-1.067-0.933-2-2-2zM10.667 12v6.667l0.667-0.4 3.867-2.667c0.8-0.533 1.733-0.933 2.8-0.933 2.533 0 4.667 2.133 4.667 4.667 0 0.267 0 0.4 0 0.667h5.333c1.467 0 2.667-1.2 2.667-2.667v-5.333h-20z"></path>
</svg>
