<svg width="36" height="36" viewBox="0 0 36 36" fill="none" xmlns="http://www.w3.org/2000/svg">
<path fill-rule="evenodd" clip-rule="evenodd" d="M18.0002 0C7.85925 0 0 7.42826 0 17.4606C0 22.7085 2.15134 27.243 5.65359 30.3758C5.94696 30.6402 6.12442 31.006 6.13891 31.4008L6.2367 34.6025C6.26929 35.6238 7.32323 36.2866 8.25765 35.8773L11.8287 34.3018C12.133 34.1678 12.4698 34.1425 12.7885 34.2294C14.4292 34.6821 16.1785 34.9212 18.0002 34.9212C28.1412 34.9212 36.0005 27.4929 36.0005 17.4606C36.0005 7.42826 28.1412 0 18.0002 0Z" fill="url(#paint0_linear)"/>
<path fill-rule="evenodd" clip-rule="evenodd" d="M7.19284 22.5673L12.4806 14.1793C13.3209 12.8464 15.1245 12.5132 16.3849 13.4585L20.5898 16.6131C20.9773 16.9028 21.5061 16.8992 21.89 16.6095L27.569 12.2996C28.3259 11.7237 29.3183 12.6328 28.8076 13.4368L23.5234 21.8212C22.6832 23.154 20.8795 23.4872 19.6192 22.5419L15.4143 19.3874C15.0267 19.0976 14.498 19.1012 14.1141 19.391L8.43149 23.7045C7.67454 24.2804 6.68217 23.3713 7.19284 22.5673Z" fill="white"/>
<defs>
<linearGradient id="paint0_linear" x1="18.0002" y1="0" x2="18.0002" y2="36.0005" gradientUnits="userSpaceOnUse">
<stop stop-color="#00B2FF"/>
<stop offset="1" stop-color="#006AFF"/>
</linearGradient>
</defs>
</svg>
