<svg width="30" height="30" viewBox="0 0 30 30" fill="none" xmlns="http://www.w3.org/2000/svg">
<path d="M15.0002 0C6.72012 0 3.05176e-05 6.72 3.05176e-05 15C3.05176e-05 23.28 6.72012 30 15.0002 30C23.2803 30 30.0004 23.28 30.0004 15C30.0004 6.72 23.2803 0 15.0002 0ZM16.5002 25.5H13.5002V22.5H16.5002V25.5ZM19.6053 13.875L18.2553 15.255C17.5053 16.02 16.9652 16.71 16.6952 17.79C16.5752 18.27 16.5002 18.81 16.5002 19.5H13.5002V18.75C13.5002 18.06 13.6202 17.4 13.8302 16.785C14.1302 15.915 14.6252 15.135 15.2552 14.505L17.1152 12.615C17.8053 11.955 18.1353 10.965 17.9403 9.915C17.7453 8.835 16.9052 7.92 15.8552 7.62C14.1902 7.155 12.6452 8.1 12.1502 9.525C11.9702 10.08 11.5052 10.5 10.9202 10.5H10.4702C9.60015 10.5 9.00014 9.66 9.24015 8.82C9.88516 6.615 11.7602 4.935 14.0852 4.575C16.3652 4.215 18.5403 5.4 19.8903 7.275C21.6603 9.72 21.1353 12.345 19.6053 13.875Z" fill="#FF962D"/>
</svg>
