<svg width="19" height="18" viewBox="0 0 19 18" fill="none" xmlns="http://www.w3.org/2000/svg">
<path d="M18.11 9.05489C18.1095 7.32463 17.6133 5.63074 16.6801 4.17372C15.7469 2.71669 14.4158 1.55753 12.8443 0.833459C11.2729 0.109382 9.52685 -0.149299 7.81295 0.0880354C6.09905 0.325369 4.48903 1.04878 3.17346 2.17264C1.85789 3.2965 0.891863 4.77376 0.389716 6.42954C-0.112431 8.08533 -0.12967 9.85032 0.340041 11.5156C0.809752 13.1809 1.74675 14.6767 3.04011 15.8261C4.33348 16.9754 5.92906 17.7301 7.638 18.0009V11.6729H5.338V9.05489H7.638V7.05989C7.58956 6.59408 7.64396 6.12331 7.79736 5.68082C7.95075 5.23833 8.1994 4.8349 8.52575 4.49901C8.8521 4.16312 9.2482 3.90296 9.68609 3.73689C10.124 3.57082 10.593 3.50289 11.06 3.53789C11.7391 3.54741 12.4165 3.60657 13.087 3.71489V5.93789H11.945C11.7505 5.91224 11.5527 5.93062 11.3663 5.99169C11.1799 6.05277 11.0096 6.15496 10.868 6.29071C10.7264 6.42647 10.6171 6.59232 10.5482 6.776C10.4793 6.95968 10.4526 7.15649 10.47 7.35189V9.05189H12.981L12.581 11.6689H10.471V17.9969C12.6001 17.6592 14.5389 16.5733 15.9391 14.9342C17.3393 13.2952 18.109 11.2106 18.11 9.05489Z" fill="white"/>
</svg>
