<!-- Generated by IcoMoon.io -->
<svg version="1.1" xmlns="http://www.w3.org/2000/svg" width="32" height="32" viewBox="0 0 32 32">
<title>Online-Banking-Original</title>
<path style="fill: #fff;" d="M28.267 7.867c-1.867-0.533-2.4-0.933-2.4-1.733 0-0.933 0.8-1.467 2.133-1.467 1.2 0 1.733 0.4 1.867 1.067 0.133 0.267 0.4 0.533 0.667 0.533h0.267c0.533 0 0.933-0.533 0.667-1.067-0.4-0.933-1.067-1.733-2.4-2v-0.4c0-0.667-0.533-1.2-1.2-1.2s-1.067 0.533-1.067 1.2v0.533c-1.6 0.267-2.8 1.333-2.8 2.933 0 1.867 1.467 2.8 3.733 3.333 2 0.533 2.4 1.2 2.4 1.867 0 0.533-0.4 1.467-2.133 1.467-1.333 0-2-0.533-2.267-1.2-0.133-0.267-0.4-0.533-0.667-0.533h-0.267c-0.533 0-0.933 0.533-0.667 1.067 0.4 1.067 1.467 1.733 2.667 2v0.533c0 0.667 0.533 1.2 1.2 1.2s1.2-0.533 1.2-1.2v-0.533c1.6-0.267 2.8-1.2 2.8-2.8 0-2.267-2-3.067-3.733-3.6zM32 25.333c0 0.8-0.533 1.333-1.333 1.333h-29.333c-0.8 0-1.333-0.533-1.333-1.333s0.533-1.333 1.333-1.333h4c-1.467 0-2.667-1.2-2.667-2.667v-13.333c0-1.467 1.2-2.667 2.667-2.667h14.667c0.8 0 1.333 0.533 1.333 1.333s-0.533 1.333-1.333 1.333h-14.667v13.333h21.333v-1.333c0-0.533 0.267-1.067 0.8-1.2 0.133-0.133 0.4-0.133 0.533-0.133 0.8 0 1.333 0.533 1.333 1.333v1.333c0 1.467-1.2 2.667-2.667 2.667h4c0.8 0 1.333 0.533 1.333 1.333z"></path>
</svg>
