<!-- Generated by IcoMoon.io -->
<svg version="1.1" xmlns="http://www.w3.org/2000/svg" width="32" height="32" viewBox="0 0 32 32">
<title>Shop-Original</title>
<path style="fill: #fff;" d="M26.667 5.333c0 0.8-0.533 1.333-1.333 1.333h-18.667c-0.8 0-1.333-0.533-1.333-1.333s0.533-1.333 1.333-1.333h18.667c0.8 0 1.333 0.533 1.333 1.333z"></path>
<path style="fill: #fff;" d="M29.333 18c0-0.267 0-0.533-0.133-0.8 0 0-2.267-6.133-2.533-6.933s-0.667-0.933-1.333-0.933h-18.667c-0.533 0-1.067 0.4-1.2 0.933l-2.667 7.067c-0.133 0.267-0.133 0.4-0.133 0.667 0 0.933 0.533 1.6 1.333 1.867v6.8c0 0.8 0.533 1.333 1.333 1.333h10.667c0.8 0 1.333-0.533 1.333-1.333v-6.667h8v6.667c0 0.8 0.533 1.333 1.333 1.333s1.333-0.533 1.333-1.333v-6.8c0.8-0.267 1.333-0.933 1.333-1.867zM14.667 25.333h-8v-5.333h8v5.333z"></path>
</svg>
