<!-- Generated by IcoMoon.io -->
<svg version="1.1" xmlns="http://www.w3.org/2000/svg" width="32" height="32" viewBox="0 0 32 32">
<title>Discount-Voucher-Original</title>
<path style="fill: #fff;" d="M29.333 12.667v-4.667c0-1.467-1.2-2.667-2.667-2.667h-21.333c-1.467 0-2.667 1.2-2.667 2.667v4.667c0 0.4 0.267 0.667 0.533 0.667 1.2 0.267 2.133 1.333 2.133 2.667s-0.933 2.4-2.133 2.667c-0.267 0-0.533 0.267-0.533 0.667v4.667c0 1.467 1.2 2.667 2.667 2.667h21.333c1.467 0 2.667-1.2 2.667-2.667v-4.667c0-0.267-0.267-0.533-0.533-0.667-1.2-0.267-2.133-1.333-2.133-2.667s0.933-2.4 2.133-2.667c0.267 0 0.533-0.267 0.533-0.667zM9.333 11.333c0-1.067 0.933-2 2-2s2 0.933 2 2c0 1.067-0.933 2-2 2s-2-0.933-2-2zM12.267 21.6c-0.533 0.533-1.333 0.533-1.867 0s-0.533-1.333 0-1.867l9.467-9.467c0.533-0.533 1.333-0.533 1.867 0s0.533 1.333 0 1.867l-9.467 9.467zM20.667 22.667c-1.067 0-2-0.933-2-2s0.933-2 2-2c1.067 0 2 0.933 2 2s-0.933 2-2 2z"></path>
</svg>
