<!-- Generated by IcoMoon.io -->
<svg version="1.1" xmlns="http://www.w3.org/2000/svg" width="32" height="32" viewBox="0 0 32 32">
<title>Wallet-Original</title>
<path style="fill: #fff;" d="M25.333 9.333h-17.333c-0.8 0-1.333-0.533-1.333-1.333s0.533-1.333 1.333-1.333h17.333c0.8 0 1.333-0.533 1.333-1.333s-0.533-1.333-1.333-1.333h-17.333c-2.267 0-4 1.733-4 4v17.333c0 1.467 1.2 2.667 2.667 2.667h18.667c1.467 0 2.667-1.2 2.667-2.667v-13.333c0-1.467-1.2-2.667-2.667-2.667zM24 20c-0.8 0-1.333-0.533-1.333-1.333s0.533-1.333 1.333-1.333c0.8 0 1.333 0.533 1.333 1.333s-0.533 1.333-1.333 1.333z"></path>
</svg>
