<svg width="36" height="36" viewBox="0 0 36 36" fill="none" xmlns="http://www.w3.org/2000/svg">
<g clip-path="url(#clip0)">
<path d="M18 36.0105C27.9468 36.0105 36.0102 27.947 36.0102 18.0002C36.0102 8.05346 27.9468 -0.0100098 18 -0.0100098C8.0532 -0.0100098 -0.0102539 8.05346 -0.0102539 18.0002C-0.0102539 27.947 8.0532 36.0105 18 36.0105Z" fill="white"/>
<path d="M26.6264 13.641C26.4218 12.8633 25.8078 12.2493 25.0301 12.0344C23.6281 11.6558 17.9897 11.6558 17.9897 11.6558C17.9897 11.6558 12.3615 11.6558 10.9493 12.0344C10.1716 12.239 9.56785 12.853 9.35296 13.641C8.97434 15.0531 8.97433 18.0003 8.97433 18.0003C8.97433 18.0003 8.97434 20.9474 9.35296 22.3596C9.55762 23.1373 10.1716 23.7513 10.9493 23.9662C12.3513 24.3448 17.9897 24.3448 17.9897 24.3448C17.9897 24.3448 23.6179 24.3448 25.0301 23.9662C25.8078 23.7615 26.4115 23.1475 26.6264 22.3596C27.0051 20.9474 27.0051 18.0003 27.0051 18.0003C27.0051 18.0003 27.0051 15.0531 26.6264 13.641Z" fill="#FF962D"/>
<path d="M16.158 20.6812L20.8653 18.0002L16.158 15.3191V20.6812Z" fill="white"/>
</g>
<defs>
<clipPath id="clip0">
<rect width="36" height="36" fill="white"/>
</clipPath>
</defs>
</svg>
